<svg width="102" height="102" viewBox="0 0 102 102" fill="none" xmlns="http://www.w3.org/2000/svg">
<path d="M42.4934 76.5C42.4934 59.168 55.4824 44.884 72.2367 42.7922C72.2367 42.6129 72.2367 42.4934 72.2367 42.4934C73.3324 40.8996 76.4801 38.25 76.4801 33.9867C76.4801 29.7234 72.2367 25.4801 72.2367 23.3684C72.2566 6.375 63.5906 0 51 0C38.9473 0 29.7434 6.375 29.7434 23.3684C29.7434 25.5 25.5 29.7434 25.5 33.9867C25.5 38.2301 28.5281 41.0391 29.7434 42.4934C29.7434 42.4934 29.7434 46.7367 31.875 53.1117C31.875 55.2434 36.1184 57.3551 38.25 59.4867C38.25 61.6184 38.25 63.7301 36.1184 67.9934L12.75 72.2566C4.24336 74.3684 0 89.25 0 102H54.068C46.9957 95.7645 42.4934 86.6602 42.4934 76.5ZM76.5 51C62.4152 51 51 62.4152 51 76.5C51 90.5848 62.4152 102 76.5 102C90.5848 102 102 90.5848 102 76.5C102 62.4152 90.5848 51 76.5 51ZM93.4934 80.7434H80.7434V93.4934H72.2367V80.7434H59.4867V72.2367H72.2367V59.4867H80.7434V72.2367H93.4934V80.7434Z" fill="white"/>
</svg>
