<svg width="105" height="79" viewBox="0 0 105 79" fill="none" xmlns="http://www.w3.org/2000/svg">
<path d="M33.3252 49.356C30.3552 49.4961 27.5107 50.589 25.2175 52.4706C22.9243 54.3523 21.3058 56.9215 20.6042 59.7939C20.2973 61.0064 18.9404 61.5284 17.7612 61.3435C16.4769 61.1428 15.8227 59.4569 16.3073 58.0115C18.0277 52.7843 21.5331 48.7778 26.1127 46.61C24.0972 45.0013 22.6342 42.8101 21.9261 40.3389C21.2181 37.8679 21.2998 35.239 22.1602 32.8163C23.0205 30.3933 24.6168 28.296 26.7284 26.8143C28.8401 25.3326 31.3626 24.5398 33.9474 24.5455C40.845 24.5455 46.4424 30.1177 46.4424 36.9588C46.4424 40.7485 44.7218 44.1449 42.0242 46.4333C46.741 48.5288 50.3274 52.5836 52.2576 57.8107C52.7908 59.2561 52.4434 60.6934 51.2318 61.3435C50.8946 61.4646 50.5359 61.5141 50.1783 61.4892C49.821 61.4646 49.4725 61.3657 49.1554 61.1995C48.8387 61.0334 48.5599 60.8031 48.3376 60.5239C48.1151 60.2445 47.9538 59.9221 47.8639 59.5771C46.2484 53.4107 41.2408 49.5646 34.9002 49.3399C34.3761 49.3779 33.8502 49.3832 33.3252 49.356ZM98.07 64.0737V52.3349C98.07 50.5363 99.7336 49.107 101.664 49.107C102.098 49.0929 102.531 49.1661 102.936 49.3223C103.342 49.4783 103.711 49.7141 104.023 50.0155C104.334 50.3169 104.581 50.6776 104.749 51.0761C104.917 51.4746 105.002 51.9027 105 52.3349V66.956C105 70.1502 103.723 73.2137 101.451 75.4725C99.1794 77.731 96.0977 79 92.8844 79H15.0312C6.74424 79 0 72.8977 0 65.3503V12.06C0 8.86573 1.27644 5.80232 3.5485 3.54365C5.82058 1.28497 8.90219 0.0160586 12.1154 0.0160586L89.9608 0C98.2557 0 105 6.10225 105 13.6578L104.984 37.1034C104.927 38.8455 103.53 40.0981 101.664 40.0981C99.7823 40.0981 98.1344 38.8455 98.07 37.0873L98.0457 13.6578C98.0457 9.69134 94.411 6.92122 89.9686 6.92122H15.0231C12.8809 6.92122 10.8265 7.76716 9.31183 9.27296C7.79709 10.7787 6.94616 12.821 6.94616 14.9505V65.3582C6.94616 69.3167 10.5808 72.1109 15.0231 72.1109H89.985C92.127 72.1109 94.1815 71.265 95.6961 69.759C97.211 68.2534 98.0618 66.2111 98.0618 64.0816L98.07 64.0737ZM33.9552 29.9732C32.1501 30.0592 30.4471 30.8328 29.2002 32.1334C27.953 33.434 27.2574 35.162 27.2574 36.9588C27.2574 38.7556 27.953 40.4834 29.2002 41.784C30.4471 43.0846 32.1501 43.8582 33.9552 43.9442C35.7606 43.8582 37.4634 43.0846 38.7106 41.784C39.9577 40.4834 40.6534 38.7556 40.6534 36.9588C40.6534 35.162 39.9577 33.434 38.7106 32.1334C37.4634 30.8328 35.7606 30.0592 33.9552 29.9732ZM82.5784 61.0626H64.2116C62.055 61.0626 60.2539 59.6977 60.2539 57.9313C60.2539 56.1646 62.055 54.8079 64.2116 54.8079H82.5623C84.7268 54.8079 86.52 56.1646 86.52 57.9392C86.52 59.7056 84.7186 61.0626 82.5623 61.0626H82.5784ZM82.5784 30.7922H64.2116C62.055 30.7922 60.2539 29.4354 60.2539 27.6689C60.2539 25.9024 62.055 24.5455 64.2116 24.5455H82.5623C84.7268 24.5455 86.52 25.9024 86.52 27.6769C86.52 29.4433 84.7186 30.7922 82.5623 30.7922H82.5784ZM82.5784 44.683H64.2116C62.055 44.683 60.2539 43.3338 60.2539 41.5596C60.2539 39.7932 62.055 38.4361 64.2116 38.4361H82.5623C84.7186 38.4361 86.52 39.7932 86.52 41.5675C86.52 43.3338 84.7268 44.683 82.5623 44.683H82.5784Z" fill="white"/>
</svg>
