<svg width="35" height="29" viewBox="0 0 35 29" fill="none" xmlns="http://www.w3.org/2000/svg">
<path d="M3.85 28.4375H31.15C33.5562 25.4406 35 21.6344 35 17.5C35 7.83125 27.1688 0 17.5 0C7.83125 0 0 7.83125 0 17.5C0 21.6344 1.44375 25.4406 3.85 28.4375ZM17.5 2.1875C18.7031 2.1875 19.6875 3.17188 19.6875 4.375C19.6875 5.57813 18.7031 6.5625 17.5 6.5625C16.2969 6.5625 15.3125 5.57813 15.3125 4.375C15.3125 3.17188 16.2969 2.1875 17.5 2.1875ZM8.75 6.5625C9.95313 6.5625 10.9375 7.54688 10.9375 8.75C10.9375 9.95313 9.95313 10.9375 8.75 10.9375C7.54687 10.9375 6.5625 9.95313 6.5625 8.75C6.5625 7.54688 7.54687 6.5625 8.75 6.5625ZM26.25 6.5625C27.4531 6.5625 28.4375 7.54688 28.4375 8.75C28.4375 9.95313 27.4531 10.9375 26.25 10.9375C25.0469 10.9375 24.0625 9.95313 24.0625 8.75C24.0625 7.54688 25.0469 6.5625 26.25 6.5625ZM14.5031 18.7031L21.875 8.75V21.875C21.875 24.2813 19.9063 26.25 17.5 26.25C15.0937 26.25 13.125 24.2813 13.125 21.875C13.125 20.6281 13.65 19.5125 14.5031 18.7031ZM4.375 15.3125C5.57813 15.3125 6.5625 16.2969 6.5625 17.5C6.5625 18.7031 5.57813 19.6875 4.375 19.6875C3.17187 19.6875 2.1875 18.7031 2.1875 17.5C2.1875 16.2969 3.17187 15.3125 4.375 15.3125ZM30.625 15.3125C31.8281 15.3125 32.8125 16.2969 32.8125 17.5C32.8125 18.7031 31.8281 19.6875 30.625 19.6875C29.4219 19.6875 28.4375 18.7031 28.4375 17.5C28.4375 16.2969 29.4219 15.3125 30.625 15.3125ZM19.6875 21.875C19.6875 20.6719 18.7031 19.6875 17.5 19.6875C16.2969 19.6875 15.3125 20.6719 15.3125 21.875C15.3125 23.0781 16.2969 24.0625 17.5 24.0625C18.7031 24.0625 19.6875 23.0781 19.6875 21.875Z" fill="white"/>
</svg>
