<svg width="36" height="38" viewBox="0 0 36 38" fill="none" xmlns="http://www.w3.org/2000/svg">
<path d="M16.2581 15.2548C16.2581 16.2087 17.038 16.982 18 16.982C18.962 16.982 19.7419 16.2087 19.7419 15.2548H16.2581ZM19.7419 1.72722C19.7419 0.77331 18.962 0 18 0C17.038 0 16.2581 0.77331 16.2581 1.72722H19.7419ZM11.7542 7.85668C12.6298 7.46138 13.0163 6.43711 12.6177 5.56897C12.2189 4.70082 11.186 4.31754 10.3105 4.71287L11.7542 7.85668ZM1.74215 20.5194L0 20.5104L0.000348856 20.5394L1.74215 20.5194ZM18 36.2716L18.02 34.5444C18.0067 34.5444 17.9933 34.5444 17.98 34.5444L18 36.2716ZM34.2579 20.5194L36 20.5394L35.9998 20.5104L34.2579 20.5194ZM25.6895 4.71287C24.8139 4.31754 23.7811 4.70082 23.3823 5.56897C22.9837 6.43711 23.3702 7.46138 24.2458 7.85668L25.6895 4.71287ZM19.7419 15.2548V1.72722H16.2581V15.2548H19.7419ZM10.3105 4.71287C4.06105 7.53461 0.0359763 13.7015 0 20.5104L3.48404 20.5283C3.5129 15.0668 6.74134 10.1201 11.7542 7.85668L10.3105 4.71287ZM0.000348856 20.5394C0.114851 30.2945 8.18207 38.1107 18.02 37.9988L17.98 34.5444C10.0658 34.6347 3.57605 28.3467 3.48394 20.4993L0.000348856 20.5394ZM17.98 37.9988C27.8179 38.1107 35.8857 30.2945 36 20.5394L32.5162 20.4993C32.424 28.3467 25.9343 34.6347 18.02 34.5444L17.98 37.9988ZM35.9998 20.5104C35.9638 13.7015 31.939 7.53461 25.6895 4.71287L24.2458 7.85668C29.2586 10.1201 32.4871 15.0668 32.5159 20.5283L35.9998 20.5104Z" fill="white"/>
</svg>
