<svg width="35" height="31" viewBox="0 0 35 31" fill="none" xmlns="http://www.w3.org/2000/svg">
<path d="M33.3051 0H1.69492C0.758817 0 0 0.758817 0 1.69492V21.5255C0 22.4616 0.758817 23.2205 1.69492 23.2205H13.5169V27.0612H8.91665C8.05216 27.0612 7.34885 27.7645 7.34885 28.629C7.34885 29.4935 8.05216 30.1968 8.91665 30.1968H26.0833C26.9478 30.1968 27.6512 29.4935 27.6512 28.629C27.6512 27.7645 26.9478 27.0612 26.0833 27.0612H21.4831V23.2205H33.3051C34.2412 23.2205 35 22.4616 35 21.5255V1.69492C35 0.758817 34.2412 0 33.3051 0ZM32.4576 20.6781H2.54239V2.54239H32.4576V20.6781Z" fill="white"/>
<path d="M11.4059 17.5395C12.0468 17.5395 12.567 17.0195 12.567 16.3786V10.8568C12.567 10.2158 12.0468 9.69608 11.4059 9.69608C10.7649 9.69608 10.2453 10.2158 10.2453 10.8568V16.3785C10.2453 17.0195 10.7648 17.5395 11.4059 17.5395Z" fill="white"/>
<path d="M15.4687 17.5395C16.1097 17.5395 16.6293 17.0195 16.6293 16.3786V6.79387C16.6293 6.15285 16.1097 5.63327 15.4687 5.63327C14.8275 5.63327 14.3078 6.15285 14.3078 6.79387V16.3786C14.3078 17.0195 14.8275 17.5395 15.4687 17.5395Z" fill="white"/>
<path d="M19.5313 17.5395C20.1725 17.5395 20.6922 17.0195 20.6922 16.3786V9.23167C20.6922 8.59065 20.1725 8.07108 19.5313 8.07108C18.8904 8.07108 18.3709 8.59065 18.3709 9.23167V16.3786C18.3705 17.0195 18.8901 17.5395 19.5313 17.5395Z" fill="white"/>
<path d="M23.5943 17.5395C24.2351 17.5395 24.7546 17.0195 24.7546 16.3785V8.01291C24.7546 7.37189 24.2349 6.85214 23.5943 6.85214C22.9532 6.85214 22.4332 7.37189 22.4332 8.01291V16.3785C22.4332 17.0195 22.9532 17.5395 23.5943 17.5395Z" fill="white"/>
</svg>
