<svg width="36" height="27" viewBox="0 0 36 27" fill="none" xmlns="http://www.w3.org/2000/svg">
<path d="M11.4258 16.8685C10.4075 16.9164 9.43226 17.2899 8.64602 17.933C7.85978 18.5761 7.30486 19.4542 7.0643 20.4359C6.95907 20.8503 6.49384 21.0287 6.08954 20.9655C5.64923 20.8969 5.42492 20.3207 5.59107 19.8267C6.18092 18.0402 7.38277 16.6709 8.95292 15.93C8.26189 15.3802 7.76031 14.6313 7.51754 13.7867C7.27477 12.9422 7.3028 12.0437 7.59777 11.2157C7.89273 10.3876 8.44006 9.67078 9.16404 9.16438C9.88803 8.65799 10.7529 8.38703 11.6391 8.38896C14.004 8.38896 15.9231 10.2934 15.9231 12.6315C15.9231 13.9267 15.3332 15.0875 14.4083 15.8696C16.0255 16.5858 17.2551 17.9716 17.9169 19.7581C18.0997 20.2521 17.9806 20.7433 17.5652 20.9655C17.4496 21.0069 17.3266 21.0238 17.204 21.0153C17.0815 21.0069 16.962 20.9731 16.8533 20.9163C16.7447 20.8595 16.6491 20.7808 16.5729 20.6854C16.4966 20.5899 16.4413 20.4797 16.4105 20.3618C15.8566 18.2543 14.1397 16.9398 11.9658 16.863C11.7861 16.876 11.6058 16.8778 11.4258 16.8685ZM33.624 21.8986V17.8866C33.624 17.2719 34.1944 16.7834 34.8563 16.7834C35.0052 16.7786 35.1536 16.8036 35.2925 16.857C35.4315 16.9103 35.5581 16.9909 35.6649 17.0939C35.7717 17.1969 35.8564 17.3202 35.914 17.4564C35.9716 17.5926 36.0008 17.7389 36 17.8866V22.8837C36 23.9754 35.5623 25.0224 34.7833 25.7944C34.0044 26.5663 32.9478 27 31.8461 27H5.15354C2.31231 27 0 24.9144 0 22.3349V4.12176C0 3.03006 0.437636 1.98307 1.21663 1.21112C1.99563 0.439166 3.05218 0.00548838 4.15384 0.00548837L30.8437 0C33.6877 0 36 2.08558 36 4.66785L35.9944 12.6809C35.9751 13.2764 35.496 13.7044 34.8563 13.7044C34.2111 13.7044 33.6461 13.2763 33.624 12.6754L33.6157 4.66785C33.6157 3.31223 32.3695 2.36548 30.8464 2.36548H5.15077C4.41632 2.36548 3.71196 2.6546 3.19263 3.16924C2.67329 3.68387 2.38154 4.38186 2.38154 5.10967V22.3376C2.38154 23.6905 3.62769 24.6455 5.15077 24.6455H30.852C31.5864 24.6455 32.2908 24.3564 32.8101 23.8417C33.3295 23.3271 33.6212 22.6291 33.6212 21.9013L33.624 21.8986ZM11.6418 10.244C11.0229 10.2734 10.439 10.5378 10.0115 10.9823C9.5839 11.4268 9.34539 12.0174 9.34539 12.6315C9.34539 13.2456 9.5839 13.8361 10.0115 14.2806C10.439 14.7251 11.0229 14.9895 11.6418 15.0189C12.2608 14.9895 12.8446 14.7251 13.2722 14.2806C13.6998 13.8361 13.9383 13.2456 13.9383 12.6315C13.9383 12.0174 13.6998 11.4268 13.2722 10.9823C12.8446 10.5378 12.2608 10.2734 11.6418 10.244ZM28.3126 20.8695H22.0154C21.276 20.8695 20.6585 20.403 20.6585 19.7993C20.6585 19.1955 21.276 18.7318 22.0154 18.7318H28.3071C29.0492 18.7318 29.664 19.1955 29.664 19.802C29.664 20.4057 29.0464 20.8695 28.3071 20.8695H28.3126ZM28.3126 10.5239H22.0154C21.276 10.5239 20.6585 10.0602 20.6585 9.45645C20.6585 8.85273 21.276 8.38896 22.0154 8.38896H28.3071C29.0492 8.38896 29.664 8.85273 29.664 9.45919C29.664 10.0629 29.0464 10.5239 28.3071 10.5239H28.3126ZM28.3126 15.2714H22.0154C21.276 15.2714 20.6585 14.8103 20.6585 14.2039C20.6585 13.6002 21.276 13.1364 22.0154 13.1364H28.3071C29.0464 13.1364 29.664 13.6002 29.664 14.2066C29.664 14.8103 29.0492 15.2714 28.3071 15.2714H28.3126Z" fill="white"/>
</svg>
