<svg width="107" height="107" viewBox="0 0 107 107" fill="none" xmlns="http://www.w3.org/2000/svg">
<path d="M22.1059 53.4999H4.6441C2.07923 53.4999 0 55.5792 0 58.144V102.356C0 104.921 2.07923 107 4.6441 107H22.1059C24.6708 107 26.75 104.921 26.75 102.356V58.144C26.75 55.5792 24.6708 53.4999 22.1059 53.4999Z" fill="white"/>
<path d="M62.2309 0H44.7691C42.2042 0 40.125 2.07923 40.125 4.6441V102.356C40.125 104.921 42.2042 107 44.7691 107H62.2309C64.7958 107 66.875 104.921 66.875 102.356V4.6441C66.875 2.07923 64.7958 0 62.2309 0Z" fill="white"/>
<path d="M102.356 35.6666H84.8941C82.3292 35.6666 80.25 37.7459 80.25 40.3107V102.356C80.25 104.921 82.3292 107 84.8941 107H102.356C104.921 107 107 104.921 107 102.356V40.3107C107 37.7459 104.921 35.6666 102.356 35.6666Z" fill="white"/>
</svg>
