<svg width="38" height="36" viewBox="0 0 38 36" fill="none" xmlns="http://www.w3.org/2000/svg">
<path d="M9.592 2.46491L9.00861 7.07247H28.988L28.4046 2.46491C28.4046 1.07133 27.2921 0 25.9133 0H12.0273C10.6485 0 9.58861 1.07133 9.58861 2.46491H9.592ZM2.4387 9.5888H35.5613C36.9401 9.5888 38 10.6601 38 12.0537V26.7317C38 28.1253 36.9401 29.1966 35.5613 29.1966H31.057V36H6.94301V29.1966H2.4387C1.05994 29.1966 0 28.1253 0 26.7317V12.0537C0 10.6601 1.05994 9.5888 2.4387 9.5888ZM28.6183 33.5334V17.6246H9.38002V33.5334H28.6183ZM25.7573 22.2305H11.9781C11.6593 22.2305 11.3947 21.9082 11.3947 21.5877V20.8369C11.3947 20.5146 11.6593 20.2472 11.9781 20.2472H25.7573C26.0761 20.2472 26.3933 20.5146 26.3933 20.8369V21.5877C26.3933 21.9099 26.0744 22.2305 25.7573 22.2305ZM25.7573 26.6769H11.9781C11.6593 26.6769 11.3947 26.3546 11.3947 26.0341V25.2833C11.3947 24.9611 11.6593 24.6936 11.9781 24.6936H25.7573C26.0761 24.6936 26.3933 24.9611 26.3933 25.2833V26.0341C26.3933 26.3563 26.0744 26.6769 25.7573 26.6769ZM25.7573 31.1216H11.9781C11.6593 31.1216 11.3947 30.7994 11.3947 30.4788V29.728C11.3947 29.4058 11.6593 29.1384 11.9781 29.1384H25.7573C26.0761 29.1384 26.3933 29.4058 26.3933 29.728V30.4788C26.3933 30.8011 26.0744 31.1216 25.7573 31.1216Z" fill="white"/>
</svg>
