<svg width="36" height="37" viewBox="0 0 36 37" fill="none" xmlns="http://www.w3.org/2000/svg">
<path d="M21.6571 0C21.9364 8.81609e-06 22.2085 0.0888101 22.4342 0.253615C22.6599 0.41842 22.8275 0.650724 22.913 0.917071L24.3642 5.43371C24.9737 5.73236 25.5569 6.068 26.1136 6.44593L30.7469 5.44693C31.0201 5.38851 31.3047 5.41845 31.5599 5.53244C31.815 5.64642 32.0274 5.83858 32.1665 6.08121L35.8235 12.4214C35.9632 12.6639 36.0223 12.9446 35.9924 13.2229C35.9626 13.5013 35.8452 13.7629 35.6573 13.9701L32.4778 17.4851C32.5241 18.1592 32.5241 18.8356 32.4778 19.5096L35.6573 23.0299C35.8452 23.2371 35.9626 23.4987 35.9924 23.7771C36.0223 24.0554 35.9632 24.3361 35.8235 24.5786L32.1665 30.9214C32.027 31.1636 31.8144 31.3552 31.5593 31.4687C31.3043 31.5822 31.0198 31.6117 30.7469 31.5531L26.1136 30.5541C25.5595 30.9294 24.9737 31.2676 24.3669 31.5663L22.913 36.0829C22.8275 36.3493 22.6599 36.5816 22.4342 36.7464C22.2085 36.9112 21.9364 37 21.6571 37H14.3429C14.0636 37 13.7915 36.9112 13.5658 36.7464C13.3401 36.5816 13.1725 36.3493 13.087 36.0829L11.6384 31.5689C11.0305 31.2712 10.4442 30.9312 9.88377 30.5514L5.25308 31.5531C4.9799 31.6115 4.69525 31.5816 4.44015 31.4676C4.18504 31.3536 3.97264 31.1614 3.83354 30.9188L0.176482 24.5786C0.0368348 24.3361 -0.0223156 24.0554 0.00756014 23.7771C0.0374358 23.4987 0.154794 23.2371 0.342712 23.0299L3.52218 19.5096C3.47613 18.8373 3.47613 18.1627 3.52218 17.4904L0.342712 13.9701C0.154794 13.7629 0.0374358 13.5013 0.00756014 13.2229C-0.0223156 12.9446 0.0368348 12.6639 0.176482 12.4214L3.83354 6.07857C3.97302 5.83642 4.18559 5.64481 4.44066 5.53131C4.69574 5.41781 4.98018 5.38827 5.25308 5.44693L9.88377 6.44857C10.4431 6.07064 11.0289 5.72971 11.6384 5.43107L13.0896 0.917071C13.1748 0.651582 13.3417 0.419893 13.5663 0.255168C13.791 0.0904423 14.0619 0.00112498 14.3403 0H21.6544H21.6571ZM20.6913 2.64286H15.3087L13.81 7.31279L12.7994 7.807C12.3026 8.05051 11.823 8.32777 11.364 8.63686L10.43 9.27114L5.63832 8.23514L2.94698 12.9077L6.23199 16.5496L6.15284 17.6701C6.11492 18.2227 6.11492 18.7773 6.15284 19.3299L6.23199 20.4504L2.9417 24.0923L5.63568 28.7649L10.4273 27.7315L11.3614 28.3631C11.8204 28.6722 12.3 28.9495 12.7967 29.193L13.8073 29.6872L15.3087 34.3571H20.6966L22.2006 29.6846L23.2085 29.193C23.7048 28.9501 24.1835 28.6728 24.6413 28.3631L25.5727 27.7315L30.367 28.7649L33.0583 24.0923L29.7706 20.4504L29.8498 19.3299C29.8878 18.7764 29.8878 18.221 29.8498 17.6675L29.7706 16.5469L33.0609 12.9077L30.367 8.23514L25.5727 9.26586L24.6413 8.63686C24.1836 8.32715 23.7048 8.04986 23.2085 7.807L22.2006 7.31543L20.694 2.64286H20.6913ZM18 10.5714C20.0994 10.5714 22.1128 11.4068 23.5972 12.8937C25.0817 14.3805 25.9157 16.3972 25.9157 18.5C25.9157 20.6028 25.0817 22.6195 23.5972 24.1063C22.1128 25.5932 20.0994 26.4286 18 26.4286C15.9006 26.4286 13.8872 25.5932 12.4028 24.1063C10.9183 22.6195 10.0843 20.6028 10.0843 18.5C10.0843 16.3972 10.9183 14.3805 12.4028 12.8937C13.8872 11.4068 15.9006 10.5714 18 10.5714ZM18 13.2143C16.6004 13.2143 15.2582 13.7712 14.2685 14.7624C13.2788 15.7537 12.7229 17.0981 12.7229 18.5C12.7229 19.9019 13.2788 21.2463 14.2685 22.2376C15.2582 23.2288 16.6004 23.7857 18 23.7857C19.3996 23.7857 20.7418 23.2288 21.7315 22.2376C22.7212 21.2463 23.2771 19.9019 23.2771 18.5C23.2771 17.0981 22.7212 15.7537 21.7315 14.7624C20.7418 13.7712 19.3996 13.2143 18 13.2143Z" fill="white"/>
</svg>
