<svg width="112" height="108" viewBox="0 0 112 108" fill="none" xmlns="http://www.w3.org/2000/svg">
<path d="M109.055 17.501L57.3622 0.22148C56.4779 -0.0738267 55.5221 -0.0738267 54.6378 0.22148L3.02825 17.4733L3.023 17.4751L2.9455 17.501C2.93032 17.506 2.91696 17.5143 2.90186 17.5196C2.71532 17.584 2.53346 17.6614 2.35761 17.7511C2.33743 17.7613 2.31646 17.7701 2.29648 17.7806C2.12228 17.8739 1.95471 17.9791 1.79496 18.0955C1.75973 18.1209 1.7255 18.147 1.6911 18.1733C1.53575 18.2913 1.38847 18.4196 1.25025 18.5573C1.23744 18.5704 1.22633 18.5846 1.21371 18.5977C1.0862 18.7309 0.967321 18.8721 0.857786 19.0205C0.83537 19.0505 0.812167 19.0798 0.790607 19.1105C0.677557 19.2708 0.575527 19.4385 0.485224 19.6127C0.471289 19.6396 0.45933 19.6671 0.445917 19.6943C0.36165 19.8649 0.288769 20.041 0.227758 20.2213C0.22204 20.2384 0.214943 20.2544 0.209424 20.2716C0.148609 20.4634 0.10132 20.6592 0.0679054 20.8577C0.0607385 20.8991 0.0549555 20.9403 0.0490594 20.9819C0.0180448 21.1863 0.00164981 21.3926 0 21.5994V64.7982C0 65.9439 0.453845 67.0426 1.26169 67.8528C2.06954 68.6629 3.16522 69.118 4.30769 69.118C5.45016 69.118 6.54584 68.6629 7.35369 67.8528C8.16154 67.0426 8.61539 65.9439 8.61539 64.7982V27.5931L26.6997 33.6383C21.9055 41.4014 20.3714 50.7523 22.4328 59.6465C24.4942 68.5407 29.9834 76.2546 37.7002 81.1016C27.4247 84.998 18.6565 92.0798 12.6704 101.317C12.3608 101.792 12.1475 102.324 12.0429 102.882C11.9383 103.44 11.9444 104.013 12.0608 104.569C12.1772 105.124 12.4016 105.651 12.7213 106.12C13.0409 106.588 13.4495 106.989 13.9237 107.299C14.3978 107.609 14.9283 107.822 15.4847 107.926C16.0411 108.031 16.6126 108.024 17.1664 107.907C17.7202 107.789 18.2456 107.564 18.7124 107.243C19.1792 106.922 19.5784 106.512 19.8871 106.036C23.8006 100.006 29.1533 95.0524 35.4595 91.6231C41.7658 88.1937 48.8261 86.3975 55.9999 86.3975C63.1737 86.3975 70.234 88.1937 76.5402 91.6231C82.8465 95.0524 88.1992 100.006 92.1127 106.036C92.4216 106.511 92.8209 106.92 93.2877 107.241C93.7544 107.561 94.2796 107.787 94.8331 107.903C95.3866 108.02 95.9577 108.027 96.5137 107.922C97.0697 107.818 97.5998 107.605 98.0736 107.295C98.5475 106.985 98.9558 106.585 99.2754 106.117C99.5949 105.649 99.8194 105.122 99.936 104.567C100.053 104.012 100.059 103.439 99.955 102.882C99.8509 102.324 99.6383 101.792 99.3293 101.317C93.3433 92.0799 84.5752 84.9981 74.2998 81.1017C82.0166 76.2547 87.5058 68.5408 89.5672 59.6465C91.6286 50.7523 90.0945 41.4014 85.3003 33.6383L109.055 25.6978C109.912 25.411 110.658 24.8609 111.187 24.1254C111.716 23.3898 112 22.5061 112 21.5994C112 20.6927 111.716 19.809 111.187 19.0734C110.658 18.3379 109.912 17.7877 109.055 17.501ZM56 77.7578C51.2197 77.7586 46.5328 76.4297 42.4606 73.9189C38.3884 71.408 35.0905 67.8136 32.9336 63.5355C30.7768 59.2573 29.8456 54.463 30.2435 49.6857C30.6415 44.9085 32.353 40.3356 35.1878 36.4756L54.6378 42.9773C55.5221 43.2726 56.4779 43.2726 57.3622 42.9773L76.8122 36.4756C79.647 40.3356 81.3585 44.9085 81.7565 49.6857C82.1544 54.463 81.2232 59.2573 79.0664 63.5355C76.9095 67.8136 73.6116 71.408 69.5394 73.9189C65.4672 76.4297 60.7803 77.7586 56 77.7578Z" fill="white"/>
</svg>
